<svg id="Ebene_4" data-name="Ebene 4" xmlns="http://www.w3.org/2000/svg" width="72.08843" height="55.95916" viewBox="0 0 72.08843 55.95916">
  <defs>
    <style>
      .cls-1 {
        fill: #d7ccc8;
      }

      .cls-2 {
        fill: #bcaaa4;
      }

      .cls-3 {
        fill: #ff9800;
      }

      .cls-4 {
        fill: #ef6c00;
      }

      .cls-5 {
        fill: #fafafa;
      }

      .cls-6 {
        fill: #f5f5f5;
      }

      .cls-7 {
        fill: #e0e0e0;
      }

      .cls-8 {
        fill: #c8e6c9;
      }
    </style>
  </defs>
  <title>splash</title>
  <path class="cls-1" d="M4.701,11.96277l4,6.125"/>
  <path class="cls-2" d="M71.61762,32.1711c-2.72034-3.00027-17.8717,6.85424-27.83333,13.33333C37.03057,49.89709,33.663,52.125,34.11762,53.6711c0.87985,2.99219,15.049,3.96348,25.5-2.83333C68.3372,45.167,73.76894,34.54379,71.61762,32.1711Z"/>
  <path class="cls-2" d="M29.451,49.33777c4.0495-1.20173,2.687-6.92831,7.75-10.875,3.14233-2.44948,4.69362-1.04376,14.5-4.25,5.13258-1.67812,8.342-2.75769,8.375-4.25,0.044-1.99079-5.57384-4.30431-10.375-4.75-14.47617-1.34383-30.54424,13.45578-28.5,20.125C22.07466,48.1882,26.4627,50.22457,29.451,49.33777Z"/>
  <path class="cls-2" d="M47.451,12.46277c-3.22558-.69793-5.05534,3.39264-10,5.375-4.39488,1.762-7.17906.22616-13.25-.375-10.86539-1.07592-22.68063,1.79039-22.875,4.25-0.18811,2.38046,10.36852,6.15407,20.75,6.5,13.82513,0.46068,29.25551-5.09365,29.5-10.75C51.66909,15.30807,49.568,12.92084,47.451,12.46277Z"/>
  <path class="cls-2" d="M11.076,5.21277c-4.26381,3.378-5.42476,11.06126-3.375,12.5,1.28226,0.9,3.3673-.9621,7.25-2.75,10.98991-5.06061,19.75419-1.86973,20.125-3.625C35.5984,8.86473,18.95235-1.02729,11.076,5.21277Z"/>
  <g>
    <path class="cls-3" d="M48.35568,18.85529c-2.63029,6.718-15.7646,5.92464-16.489,5.8729-3.69108-.25007-8.29623-1.37981-10.62471-2.99248,1.02625-1.65584,2.05251-4.37235,4.50172-4.95877,0.51742-.12938,1.0262-0.138,1.44019-0.25013a7.15514,7.15514,0,0,0,1.17284.38809c0.96588,0.23286,1.80243.276,4.85529,0,3.8463-.345,5.76942-0.52605,5.92464-0.97451,0.46568-1.30222-3.57033-4.41545-7.865-5.81253a20.974,20.974,0,0,0-7.89951-.82792A22.23757,22.23757,0,0,0,12.23,12.24937c-1.51782.91413-3.37194,2.613-3.01838,3.66518,0.37946,1.12973,3.32883,1.62125,5.75221.86239,3.13044-.98314,3.08733-3.34609,6.468-4.45861,0.56052-.18107,3.40641-1.12111,5.24332.36224a3.685,3.685,0,0,1,.82792.95724,13.9404,13.9404,0,0,0-1.62131.207c-2.96664.54331-3.33746,2.17325-7.44247,4.312a19.05624,19.05624,0,0,1-6.468,2.20773,14.62537,14.62537,0,0,1-5.01051-.05174c-3.3892-.733-5.51934-3.06149-6.95953-4.7518,0.01727-.68991.069-1.16421,0.08627-1.30222A13.15057,13.15057,0,0,1,4.10622,6.7904a20.04445,20.04445,0,0,1,8.46009-5.13126A28.53589,28.53589,0,0,1,25.12277.15a31.12273,31.12273,0,0,1,7.81329,1.94039c5.74358,2.06113,13.19463,4.7259,15.25576,11.0559A8.33126,8.33126,0,0,1,48.35568,18.85529Z"/>
    <path class="cls-4" d="M42.10332,14.43983c-0.37946.74165-1.38844,0.9055-3.00112,0.91414-0.54331-1.49193-4.08774-4.01016-7.83056-5.22611a20.97392,20.97392,0,0,0-7.89951-.82792A22.23754,22.23754,0,0,0,12.23,12.24937c-1.26769.76749-2.77688,2.07835-3.01838,3.1046a1.625,1.625,0,0,1-.9055-0.81065c-0.74165-1.74205,2.46644-5.06225,5.50208-6.84741C17.45607,5.55718,20.97465,5.56581,26.0369,5.652c5.24337,0.08622,8.89992.1897,12.23738,2.69067C40.46475,9.98985,42.86223,12.91338,42.10332,14.43983Z"/>
    <path class="cls-4" d="M48.35568,18.85529c-2.63029,6.718-15.7646,5.92465-16.489,5.8729-3.69107-.25008-8.29623-1.37981-10.62471-2.99248a24.98656,24.98656,0,0,1,2.06114-3.32025,8.38728,8.38728,0,0,0,1.93176.65543,10.15817,10.15817,0,0,0,4.312-.31908c3.78592-.70717,4.07911.4053,8.08063,0,2.60445-.276,5.90738-0.61232,8.40835-2.9149a9.761,9.761,0,0,0,2.09561-2.87179c0.01726,0.06037.04311,0.12075,0.06037,0.18112A8.33121,8.33121,0,0,1,48.35568,18.85529Z"/>
    <path class="cls-4" d="M28.08077,15.32807a1.36248,1.36248,0,0,1-.18107.73307,0.74458,0.74458,0,0,1-.12075.15522,1.01531,1.01531,0,0,1-.18975.14659,0.96936,0.96936,0,0,1-.1897.09485,1.5705,1.5705,0,0,1-.2156.069c-0.414.11212-.92277,0.12075-1.44018,0.25013-2.44922.58642-3.47547,3.30293-4.50173,4.95877-0.08622.12933-.16386,0.25008-0.24144,0.36219C17.8959,26.522,7.60754,28.126,2.81263,23.4605A9.348,9.348,0,0,1,.25992,18.47583c-0.02584-.10348-0.04311-0.2156-0.06037-0.31908a14.19938,14.19938,0,0,1-.19833-2.59582c1.44018,1.69031,3.57033,4.01879,6.95953,4.7518a14.62537,14.62537,0,0,0,5.01051.05174,19.0563,19.0563,0,0,0,6.468-2.20773c4.105-2.13872,4.47583-3.76866,7.44247-4.312a13.94052,13.94052,0,0,1,1.62131-.207l0.12933,0.207c0.03453,0.069.07764,0.138,0.11212,0.207a3.63447,3.63447,0,0,1,.29324.87966l0.02584,0.12933C28.07214,15.15564,28.08077,15.24186,28.08077,15.32807Z"/>
  </g>
  <polygon class="cls-5" points="24.951 1.775 24.326 0.463 26.451 0.838 24.951 1.775"/>
  <polygon class="cls-5" points="37.388 5.15 36.576 3.463 37.326 3.838 37.388 5.15"/>
  <polygon class="cls-5" points="13.013 1.65 13.888 3.088 14.638 2.025 13.013 1.65"/>
  <polygon class="cls-5" points="6.513 6.088 6.201 7.525 7.388 7.525 6.513 6.088"/>
  <polygon class="cls-5" points="42.263 7.713 41.076 9.338 43.638 9.9 42.263 7.713"/>
  <polygon class="cls-5" points="46.076 13.775 46.036 15.837 47.888 15.4 46.076 13.775"/>
  <polygon class="cls-5" points="32.826 17.838 32.013 18.713 32.951 18.838 32.826 17.838"/>
  <polygon class="cls-5" points="22.201 13.463 21.513 14.275 23.013 14.338 22.201 13.463"/>
  <polygon class="cls-5" points="7.701 17.713 6.451 18.463 8.076 18.463 7.701 17.713"/>
  <polygon class="cls-5" points="7.388 12.088 6.763 13.088 7.826 13.4 7.388 12.088"/>
  <polygon class="cls-5" points="3.138 12.088 2.138 13.213 3.826 13.213 3.138 12.088"/>
  <polygon class="cls-5" points="28.576 6.213 27.513 6.9 28.826 7.338 28.576 6.213"/>
  <g id="wurst1">
    <path class="cls-6" d="M27.35835,47.44665c-3.48589,1.15371-6.97085-2.10292-7.23617-2.35785-3.29109-3.16224-2.935-7.78454-2.84569-8.94359a14.37188,14.37188,0,0,1,3.25221-7.80531c3.16178-4.08348,7.24516-5.551,11.708-7.15487,3.38726-1.21734,7.13649-1.59751,14.635-2.35785,4.59413-.46584,7.02255-0.48152,8.86228,1.13827A7.41637,7.41637,0,0,1,57.92916,24.112a7.10137,7.10137,0,0,1-.97566,5.04093c-0.64542.90945-1.79859,1.9412-6.911,3.0083-6.064,1.26573-7.35291.55485-11.46405,1.95133-2.83374.96257-4.76,1.61689-5.854,3.49613-1.21278,2.08335-.167,3.54953-1.62611,6.26051A7.087,7.087,0,0,1,27.35835,47.44665Z"/>
    <path class="cls-7" d="M56.95675,29.15294c-0.65044.91064-1.80825,1.93831-6.9077,3.005-6.07511,1.27484-7.36306.55937-11.47382,1.95133-2.83592.96264-4.76121,1.62611-5.854,3.49938-1.20981,2.08138-.16912,3.55139-1.62611,6.25726-0.5053.93842-1.55775,2.9543-3.73353,3.57743a5.309,5.309,0,0,1-3.01155-.078,10.56591,10.56591,0,0,0,3.57743-2.35785c3.96147-4.03236,1.41068-8.71658,4.6344-12.1958,2.64019-2.84943,7.11646-3.2348,12.43972-3.74,4.86825-.46206,7.46132.087,10.00381-1.94807A9.00818,9.00818,0,0,0,57.72431,23.247a5.98607,5.98607,0,0,1,.20811.87157A7.15238,7.15238,0,0,1,56.95675,29.15294Z"/>
    <path class="cls-8" d="M26.95183,29.55947a0.60039,0.60039,0,0,0,.32522.65044,1.2755,1.2755,0,0,0,.65044-1.30089A0.8279,0.8279,0,0,0,26.95183,29.55947Z"/>
    <path class="cls-8" d="M39.76071,25.90073a0.43733,0.43733,0,0,0,.24392.52848,0.62875,0.62875,0,0,0,.56914-0.65044A0.57089,0.57089,0,0,0,39.76071,25.90073Z"/>
    <path class="cls-8" d="M50.151,27.09321a0.54679,0.54679,0,0,0,.1084.75885,0.607,0.607,0,0,0,.81305-0.37943A0.719,0.719,0,0,0,50.151,27.09321Z"/>
  </g>
  <g id="wurst2">
    <path class="cls-6" d="M50.10045,37.05677a12.33668,12.33668,0,0,0,4.24862-4.17233c1.66871-2.94561.62376-4.6049,2.22924-6.39023,1.85437-2.0621,5.90109-2.79827,8.40708-.993,2.01954,1.45482,2.30109,4.0328,2.43512,5.19844a11.29269,11.29269,0,0,1-1.33372,6.323c-1.47208,3.11793-3.69738,5.81044-7.42769,8.82535-2.21647,1.7914-10.46309,8.14086-20.76743,8.91174a7.30909,7.30909,0,0,1-5.21346-1.107A6.81013,6.81013,0,0,1,30.57612,46.008a7.18093,7.18093,0,0,1,3.39353-3.36994,9.80114,9.80114,0,0,1,3.60845-1.09773C38.7288,41.37868,45.2251,40.39632,50.10045,37.05677Z"/>
    <path class="cls-7" d="M67.42692,30.69856a11.367,11.367,0,0,1-1.34228,6.331c-1.4721,3.10811-3.69927,5.8017-7.42983,8.81251-2.219,1.79537-10.45635,8.1445-20.75993,8.91709a7.35153,7.35153,0,0,1-5.22309-1.10539,4.90079,4.90079,0,0,1-.99922-1.00685,27.95425,27.95425,0,0,0,11.60351-1.67565c5.57446-2.0792,9.80941-5.70191,12.50733-8.02572a96.74262,96.74262,0,0,0,9.23458-9.378C65.97987,32.45723,66.77077,31.50731,67.42692,30.69856Z"/>
    <path class="cls-8" d="M39.71676,48.09709a0.73286,0.73286,0,0,0-.81305.65044,0.86114,0.86114,0,0,0,1.13827.48783A0.80628,0.80628,0,0,0,39.71676,48.09709Z"/>
    <path class="cls-8" d="M47.03424,42.76878a0.73286,0.73286,0,0,0-.81305.65044,0.86114,0.86114,0,0,0,1.13827.48783A0.80628,0.80628,0,0,0,47.03424,42.76878Z"/>
    <path class="cls-8" d="M63.05139,30.20991a0.95223,0.95223,0,0,0-1.13827-.24392,0.7842,0.7842,0,0,0-.48783.81305C61.51648,30.88979,61.866,30.86559,63.05139,30.20991Z"/>
    <path class="cls-8" d="M53.24055,42.62253a1.21571,1.21571,0,0,0,1.057-.59624,0.77519,0.77519,0,0,0-1.00277.18971A0.39374,0.39374,0,0,0,53.24055,42.62253Z"/>
  </g>
</svg>
